<?xml version="1.0" standalone="no"?>
<!DOCTYPE svg PUBLIC "-//W3C//DTD SVG 1.1//EN" "http://www.w3.org/Graphics/SVG/1.1/DTD/svg11.dtd" >
<svg xmlns="http://www.w3.org/2000/svg">
<defs>
<font id="CABNDWebBold" horiz-adv-x="1079" >
  <font-face 
    font-family="CA BND Web Bold"
    font-weight="700"
    font-stretch="normal"
    units-per-em="2048"
    panose-1="2 0 0 0 0 0 0 0 0 0"
    ascent="1638"
    descent="-410"
    x-height="1055"
    cap-height="1468"
    bbox="-182 -389 1886 1966"
    underline-thickness="102"
    underline-position="-102"
    unicode-range="U+0020-U+FB02"
  />
<missing-glyph horiz-adv-x="303" 
 />
    <glyph glyph-name="uniFB01" unicode="fi" horiz-adv-x="1044" 
d="M399 1149v-94h535v-1055h-248v842h-287v-842h-247v842h-91v213h91v110q0 125 88 214t213 89h145v-249h-145q-23 -4 -38.5 -24.5t-15.5 -45.5z" />
    <glyph glyph-name="uniFB02" unicode="fl" horiz-adv-x="1118" 
d="M453 1468h153q135 0 228.5 -84t93.5 -227v-842q0 -49 55 -69h94v-248h-96q-125 0 -213 89t-88 214v856q0 27 -22.5 44.5t-51.5 17.5h-153q-23 -4 -39.5 -24.5t-16.5 -45.5v-94h160v-213h-160v-842h-245v842h-91v213h91v110q0 125 88 214t213 89z" />
    <glyph glyph-name=".notdef" horiz-adv-x="303" 
 />
    <glyph glyph-name=".null" horiz-adv-x="0" 
 />
    <glyph glyph-name="nonmarkingreturn" horiz-adv-x="682" 
 />
    <glyph glyph-name="space" unicode=" " horiz-adv-x="495" 
 />
    <glyph glyph-name="exclam" unicode="!" horiz-adv-x="501" 
d="M125 356v1112h252v-1112h-252zM389 125q0 -57 -40 -98t-97 -41t-98 41t-41 98q0 61 40 99t99 38q57 0 97 -39t40 -98z" />
    <glyph glyph-name="quotedbl" unicode="&#x22;" horiz-adv-x="671" 
d="M86 1217l-45 251v138h266v-138l-41 -251h-180zM410 1217l-45 251v138h266v-138l-41 -251h-180z" />
    <glyph glyph-name="numbersign" unicode="#" horiz-adv-x="1681" 
d="M1411 1055v131q0 35 -18.5 59.5t-49.5 24.5q-68 0 -67 -84v-131q0 -96 67 -97q31 0 49.5 28t18.5 69zM1620 1194v-166q0 -113 -84 -193.5t-193 -80.5q-111 0 -193.5 79.5t-82.5 190.5v176q0 115 82 195t194 80q111 0 194 -82t83 -199zM113 0v1468h231l373 -847v847h250
v-1468h-232l-370 817v-817h-252z" />
    <glyph glyph-name="dollar" unicode="$" horiz-adv-x="1030" 
d="M414 1481v114h211v-122q137 -43 224 -168t87 -287l-250 -88v131q0 80 -61 135v-365q324 -135 323 -430q0 -147 -92 -262.5t-231 -150.5v-121h-211v123q-139 39 -229.5 165t-90.5 291l248 91v-136q0 -92 72 -141v393q-332 135 -332 408q0 152 94.5 268.5t237.5 151.5z
M334 1061q0 -82 80 -139v288q-80 -49 -80 -149zM694 401q0 82 -69 148v-289q69 51 69 141z" />
    <glyph glyph-name="percent" unicode="%" horiz-adv-x="1460" 
d="M274 0l633 1468h248l-635 -1468h-246zM1186 422v106q0 27 -15.5 44.5t-44.5 17.5q-59 0 -59 -62v-106q0 -74 59 -74q29 0 44.5 21.5t15.5 52.5zM1348 526v-118q0 -84 -69 -145.5t-153 -61.5t-152.5 61.5t-68.5 143.5v126q0 84 67.5 145.5t153.5 61.5q84 0 153 -63.5
t69 -149.5zM393 963v106q0 27 -15.5 44t-43.5 17q-59 0 -60 -61v-106q0 -74 60 -74q27 0 43 21.5t16 52.5zM555 1067v-119q0 -84 -68.5 -145.5t-152.5 -61.5t-152.5 61.5t-68.5 143.5v127q0 84 67.5 145.5t153.5 61.5q84 0 152.5 -63.5t68.5 -149.5z" />
    <glyph glyph-name="ampersand" unicode="&#x26;" horiz-adv-x="1126" 
d="M668 602v252h346v-252h-49v-199q0 -174 -125 -300t-301 -126q-174 0 -300 126t-126 300v23q0 178 123 305q-123 127 -123 297v33q0 176 126 303t300 127q178 0 302 -138.5t124 -334.5l-250 -88v131q0 74 -51.5 125t-124.5 51q-72 0 -123 -51t-51 -125v-33q0 -74 62 -124
t157 -50v-252q-94 0 -156.5 -51t-62.5 -125v-23q0 -72 51 -123t123 -51q74 0 125 51.5t51 122.5v199h-47z" />
    <glyph glyph-name="quotesingle" unicode="'" horiz-adv-x="491" 
d="M158 1217l-45 251v138h266v-138l-41 -251h-180z" />
    <glyph glyph-name="parenleft" unicode="(" horiz-adv-x="657" 
d="M596 111v-250q-199 0 -341 126t-142 302v893q0 176 142 302t341 126v-252q-96 0 -165 -51.5t-69 -124.5v-893q0 -74 69 -126t165 -52z" />
    <glyph glyph-name="parenright" unicode=")" horiz-adv-x="657" 
d="M61 -139v250q96 0 165 52t69 126v893q0 74 -68.5 125t-165.5 51v252q199 0 341.5 -126t142.5 -302v-893q0 -176 -142.5 -302t-341.5 -126z" />
    <glyph glyph-name="asterisk" unicode="*" horiz-adv-x="999" 
d="M627 272h-254v242l-172 -125l-129 221l184 119l-184 117l129 221l172 -127v242h254v-242l174 127l127 -221l-183 -117l183 -119l-127 -219l-174 127v-246z" />
    <glyph glyph-name="plus" unicode="+" horiz-adv-x="954" 
d="M113 465v252h237v239h254v-239h238v-252h-238v-238h-254v238h-237z" />
    <glyph glyph-name="comma" unicode="," horiz-adv-x="501" 
d="M158 -129l14 143q-59 45 -59 111q0 61 40 99t99 38q57 0 97 -39t40 -98q0 -20 -12 -76l-41 -178h-178z" />
    <glyph glyph-name="hyphen" unicode="-" horiz-adv-x="913" 
d="M113 473v236h688v-236h-688z" />
    <glyph glyph-name="period" unicode="." horiz-adv-x="501" 
d="M389 125q0 -57 -40 -98t-97 -41t-98 41t-41 98q0 61 40 99t99 38q57 0 97 -39t40 -98z" />
    <glyph glyph-name="slash" unicode="/" horiz-adv-x="1130" 
d="M113 0l632 1466h273l-633 -1466h-272z" />
    <glyph glyph-name="zero" unicode="0" 
d="M360 1063v-662q0 -74 52.5 -125t126 -51t126 51.5t52.5 124.5v662q0 76 -52.5 127t-126 51t-126 -51t-52.5 -127zM113 401v662q0 178 124.5 303t301 125t302.5 -125t126 -303v-662q0 -176 -126 -301t-302.5 -125t-301 125t-124.5 301z" />
    <glyph glyph-name="one" unicode="1" horiz-adv-x="1077" 
d="M283 1307l276 161h213v-1468h-250v1167l-239 -141v281z" />
    <glyph glyph-name="two" unicode="2" horiz-adv-x="1077" 
d="M113 215l585 795q18 23 19 53q0 74 -52.5 125t-125.5 51q-72 0 -124.5 -51t-52.5 -125v-133l-249 98q0 193 124.5 328t301.5 135q178 0 302 -127t124 -307q0 -94 -68 -189l-444 -618h512v-250h-852v215z" />
    <glyph glyph-name="three" unicode="3" horiz-adv-x="1077" 
d="M965 1061v-33q0 -172 -125 -297q125 -129 125 -305v-23q0 -174 -125 -300t-301.5 -126t-301 137.5t-124.5 334.5l247 90v-136q0 -72 52.5 -123t126.5 -51q72 0 124 51.5t52 122.5v23q0 74 -68.5 125t-165.5 51v252q96 0 165 51t69 123v33q0 74 -52.5 125t-123.5 51
q-74 0 -126.5 -51t-52.5 -125v-135l-247 98q0 193 124.5 330t301 137t301.5 -127t125 -303z" />
    <glyph glyph-name="four" unicode="4" horiz-adv-x="1077" 
d="M592 729v272l-178 -272h178zM965 729v-254h-138v-475h-235v475h-479v215l501 778h213v-739h138z" />
    <glyph glyph-name="five" unicode="5" horiz-adv-x="1077" 
d="M113 422l247 117v-138q0 -72 52.5 -123t126.5 -51q72 0 124 51.5t52 122.5v168q0 72 -52.5 124t-123.5 52q-49 0 -116 -24.5t-99 -61.5l-211 64v745h821v-254h-574v-243q94 25 179 24q176 0 301 -123.5t125 -302.5v-168q0 -174 -125 -299t-301.5 -125t-301 131.5
t-124.5 313.5z" />
    <glyph glyph-name="six" unicode="6" 
d="M360 530v-122q0 -74 52.5 -126.5t126.5 -52.5q72 0 124 52.5t52 126.5v122q0 72 -52.5 123.5t-123.5 51.5q-74 0 -126.5 -51.5t-52.5 -123.5zM956 1130l-241 -67q0 74 -52.5 126t-123.5 52q-74 0 -126.5 -52t-52.5 -126v-143q98 39 179 38q176 0 301 -125.5t125 -302.5
v-122q0 -176 -125 -302t-301.5 -126t-301 125.5t-124.5 302.5v655q0 176 124.5 303t301.5 127q150 0 267 -102.5t150 -260.5z" />
    <glyph glyph-name="seven" unicode="7" horiz-adv-x="1077" 
d="M113 1159v309h856v-204l-486 -1264h-272l467 1214h-313v-55h-252z" />
    <glyph glyph-name="eight" unicode="8" horiz-adv-x="1077" 
d="M717 401v25q0 72 -52.5 123t-125.5 51q-72 0 -124.5 -51t-52.5 -123v-25q0 -72 52.5 -124t124.5 -52q74 0 126 52t52 124zM717 1026v33q0 76 -52.5 127t-125.5 51q-72 0 -124.5 -51t-52.5 -127v-33q0 -70 52.5 -121t124.5 -51q74 0 126 50t52 122zM965 1059v-33
q0 -178 -125 -297q125 -129 125 -303v-25q0 -176 -125 -301t-301.5 -125t-301 125t-124.5 301v25q0 178 125 303q-125 125 -125 297v33q0 178 124.5 305t301 127t301.5 -127t125 -305z" />
    <glyph glyph-name="nine" unicode="9" horiz-adv-x="1077" 
d="M717 940v123q0 74 -52.5 126t-125.5 52q-72 0 -124.5 -52t-52.5 -126v-123q0 -72 52.5 -123t124.5 -51q74 0 126 51t52 123zM125 322l237 86q0 -74 52.5 -126.5t124.5 -52.5q74 0 126 52.5t52 126.5v143q-98 -39 -178 -39q-176 0 -301 126t-125 302v123q0 176 124.5 302
t301 126t301.5 -126t125 -302v-655q0 -176 -125 -303.5t-301 -127.5q-143 0 -258 95.5t-156 249.5z" />
    <glyph glyph-name="colon" unicode=":" horiz-adv-x="501" 
d="M389 125q0 -57 -40 -98t-97 -41t-98 41t-41 98q0 61 40 99t99 38q57 0 97 -39t40 -98zM389 698q0 -57 -40 -97t-97 -40t-98 40t-41 97q0 61 40 100.5t99 39.5q57 0 97 -39.5t40 -100.5z" />
    <glyph glyph-name="semicolon" unicode=";" horiz-adv-x="501" 
d="M389 698q0 -57 -40 -97t-97 -40t-98 40t-41 97q0 61 40 100.5t99 39.5q57 0 97 -39.5t40 -100.5zM158 -129l14 143q-59 45 -59 111q0 61 40 99t99 38q57 0 97 -39t40 -98q0 -20 -12 -76l-41 -178h-178z" />
    <glyph glyph-name="less" unicode="&#x3c;" horiz-adv-x="1085" 
d="M113 623v229l860 477v-291l-545 -301l545 -301v-291z" />
    <glyph glyph-name="equal" unicode="=" horiz-adv-x="987" 
d="M113 274v252h761v-252h-761zM113 657v252h761v-252h-761z" />
    <glyph glyph-name="greater" unicode="&#x3e;" horiz-adv-x="1085" 
d="M973 852v-229l-860 -478v291l544 301l-544 301v291z" />
    <glyph glyph-name="question" unicode="?" horiz-adv-x="974" 
d="M612 479v-123h-252v156q0 61 28 123.5t114 179.5q16 23 68.5 91.5t76.5 103.5q18 23 19 53q0 74 -52.5 125t-126.5 51q-72 0 -124 -51t-52 -125v-133l-250 98q0 193 125 328t301 135q178 0 302 -127t124 -307q0 -96 -67 -189l-113 -155q-74 -98 -97.5 -145.5t-23.5 -88.5
zM625 125q0 -57 -40 -98t-97.5 -41t-98.5 41t-41 98q0 61 40 99t99 38q57 0 97.5 -39t40.5 -98z" />
    <glyph glyph-name="at" unicode="@" horiz-adv-x="1247" 
d="M483 211q49 0 82 38t33 83v96h-74q-74 0 -119 -33t-45 -84q0 -47 34 -73.5t89 -26.5zM1135 659v-360q0 -143 -91.5 -228t-218.5 -85q-117 0 -161 47q-78 -47 -181 -47q-172 0 -263 89t-91 226q0 139 101.5 247.5t308.5 108.5h59q-10 100 -117 101q-92 0 -162 -92
l-153 192q137 131 317 131q174 0 263.5 -77.5t89.5 -252.5v-307q0 -72 -21 -133q27 0 57.5 18.5t30.5 43.5v395q0 188 -114.5 284.5t-305.5 96.5q-92 0 -229 -62l-141 179q172 113 370 112q309 0 480.5 -157t171.5 -470z" />
    <glyph glyph-name="A" unicode="A" horiz-adv-x="1032" 
d="M424 573h188l-94 359zM416 1468h200l406 -1468h-252l-100 362h-303l-105 -362h-252z" />
    <glyph glyph-name="B" unicode="B" horiz-adv-x="1028" 
d="M360 602v-352h179q74 0 126 52t52 124q0 74 -52.5 125t-125.5 51h-179zM360 1217v-357h179q74 0 126 54.5t52 127.5q0 72 -52.5 123.5t-125.5 51.5h-179zM113 1468h426q176 0 302 -124.5t126 -301.5q0 -180 -125 -309q125 -125 125 -307q0 -176 -126 -301t-302 -125h-426
v1468z" />
    <glyph glyph-name="C" unicode="C" horiz-adv-x="997" 
d="M686 403v136l250 -99q0 -193 -125 -328t-303 -135q-176 0 -301 125t-125 301v658q0 178 125 304t301 126q178 0 303 -138.5t125 -334.5l-250 -88v131q0 76 -52 127t-126 51t-126 -51t-52 -127v-658q0 -74 52 -126t126 -52t126 52t52 126z" />
    <glyph glyph-name="D" unicode="D" 
d="M360 1217v-967h179q74 0 126 52t52 124v616q0 72 -52.5 123.5t-125.5 51.5h-179zM113 1468h426q176 0 302 -124.5t126 -301.5v-616q0 -176 -126 -301t-302 -125h-426v1468z" />
    <glyph glyph-name="E" unicode="E" horiz-adv-x="1028" 
d="M360 1217v-359h467v-250h-467v-358h607v-250h-854v1468h854v-251h-607z" />
    <glyph glyph-name="F" unicode="F" horiz-adv-x="1028" 
d="M360 1217v-359h467v-250h-467v-608h-247v1468h854v-251h-607z" />
    <glyph glyph-name="G" unicode="G" horiz-adv-x="1048" 
d="M453 582v252h483v-433q0 -176 -126 -301t-302 -125t-301 125t-125 301v660q0 178 125 304t301 126q178 0 303 -138.5t125 -334.5l-250 -88v131q0 76 -52 127t-126 51t-126 -51t-52 -127v-660q0 -74 52 -125t126 -51t126 51.5t52 124.5v181h-233z" />
    <glyph glyph-name="H" unicode="H" 
d="M360 1468v-608h357v608h250v-1468h-250v610h-357v-610h-247v1468h247z" />
    <glyph glyph-name="I" unicode="I" horiz-adv-x="477" 
d="M113 0v1468h252v-1468h-252z" />
    <glyph glyph-name="J" unicode="J" horiz-adv-x="1028" 
d="M666 1468h249v-1067q0 -176 -125.5 -301t-302.5 -125q-178 0 -302 137.5t-124 333.5l248 91v-136q0 -74 52.5 -125t126 -51t126 51.5t52.5 124.5v1067z" />
    <glyph glyph-name="K" unicode="K" horiz-adv-x="1183" 
d="M117 0v1468h254v-618l438 618h299l-418 -600l451 -868h-312l-309 625l-149 -211v-414h-254z" />
    <glyph glyph-name="L" unicode="L" horiz-adv-x="966" 
d="M360 1468v-1214h607v-254h-854v1468h247z" />
    <glyph glyph-name="M" unicode="M" horiz-adv-x="1251" 
d="M113 0v1468h219l295 -561l293 561h219v-1468h-252v885l-260 -484l-262 486v-887h-252z" />
    <glyph glyph-name="N" unicode="N" 
d="M113 0v1468h231l373 -847v847h250v-1468h-232l-370 817v-817h-252z" />
    <glyph glyph-name="O" unicode="O" horiz-adv-x="1017" 
d="M330 1063v-662q0 -74 52 -125t126 -51t126 51.5t52 124.5v662q0 76 -52 127t-126 51t-126 -51t-52 -127zM82 401v662q0 178 125 303t301 125t302 -125t126 -303v-662q0 -176 -126 -301t-302 -125t-301 125t-125 301z" />
    <glyph glyph-name="P" unicode="P" horiz-adv-x="1030" 
d="M365 1219v-353h178q72 0 123 52.5t51 125.5q0 72 -51.5 123.5t-122.5 51.5h-178zM113 1468h430q176 0 301 -123.5t125 -300.5q0 -178 -125 -303t-301 -125h-178v-616h-252v1468z" />
    <glyph glyph-name="Q" unicode="Q" horiz-adv-x="1073" 
d="M82 401v662q0 178 125 303t301 125t302 -125t126 -303v-662q0 -201 -156 -329q20 -12 51 -13q35 0 70 58l172 -78q-74 -162 -252 -162q-74 0 -127 29q-2 0 -34.5 18.5t-50 25.5t-47.5 16t-54 9q-176 0 -301 125t-125 301zM330 1063v-662q0 -74 52 -125t126 -51t126 51.5
t52 124.5v662q0 76 -52 127t-126 51t-126 -51t-52 -127z" />
    <glyph glyph-name="R" unicode="R" horiz-adv-x="1107" 
d="M362 1217v-351h179q72 0 123 52.5t51 124t-51.5 123t-122.5 51.5h-179zM113 1468h428q176 0 301 -124.5t125 -301.5q0 -123 -59.5 -224t-166.5 -154l346 -664h-311l-299 616h-115v-616h-249v1468z" />
    <glyph glyph-name="S" unicode="S" horiz-adv-x="1030" 
d="M537 864q193 -61 302 -169.5t109 -293.5q0 -176 -126 -301t-302 -125q-178 0 -302 137.5t-124 333.5l248 91v-136q0 -74 52 -125t126 -51q72 0 123 51.5t51 124.5q0 70 -50 128.5t-142 91.5q-80 27 -142.5 57.5t-131 81.5t-107.5 128t-39 173q0 178 125 304t301 126
q178 0 303 -137t125 -336l-250 -88v131q0 76 -52 127t-126 51q-72 0 -123 -51t-51 -127q0 -127 203 -197z" />
    <glyph glyph-name="T" unicode="T" horiz-adv-x="894" 
d="M20 1468h854v-251h-284v-1217h-252v1217h-318v251z" />
    <glyph glyph-name="U" unicode="U" 
d="M113 401v1067h247v-1067q0 -74 52.5 -125t126 -51t126 51.5t52.5 124.5v1067h250v-1067q0 -176 -126 -301t-302.5 -125t-301 125t-124.5 301z" />
    <glyph glyph-name="V" unicode="V" horiz-adv-x="1171" 
d="M1161 1468l-463 -1468h-227l-461 1468h279l297 -999l299 999h276z" />
    <glyph glyph-name="W" unicode="W" horiz-adv-x="1536" 
d="M766 885l-223 -885h-224l-309 1468h269l172 -882l215 882h206l218 -886l172 886h264l-314 -1468h-223z" />
    <glyph glyph-name="X" unicode="X" horiz-adv-x="1015" 
d="M635 778l371 -778h-275l-225 473l-221 -473h-275l361 774l-322 694h285l166 -383l162 383h284z" />
    <glyph glyph-name="Y" unicode="Y" horiz-adv-x="1081" 
d="M1071 1468l-403 -811v-657h-254v657l-404 811h281l250 -507l250 507h280z" />
    <glyph glyph-name="Z" unicode="Z" horiz-adv-x="935" 
d="M59 1468h836v-211l-545 -1013h545v-244h-854v209l547 1016h-529v243z" />
    <glyph glyph-name="bracketleft" unicode="[" horiz-adv-x="593" 
d="M362 1378v-1286h119v-254h-368v1794h368v-254h-119z" />
    <glyph glyph-name="backslash" unicode="\" horiz-adv-x="1130" 
d="M385 1466l633 -1466h-273l-632 1466h272z" />
    <glyph glyph-name="bracketright" unicode="]" horiz-adv-x="593" 
d="M231 92v1286h-118v254h368v-1794h-368v254h118z" />
    <glyph glyph-name="asciicircum" unicode="^" horiz-adv-x="1181" 
d="M494 1462h194l381 -616h-285l-194 295l-195 -295h-282z" />
    <glyph glyph-name="underscore" unicode="_" horiz-adv-x="829" 
d="M-10 -313v252h850v-252h-850z" />
    <glyph glyph-name="grave" unicode="`" horiz-adv-x="598" 
d="M365 1487l120 -371l-166 -74l-206 330z" />
    <glyph glyph-name="a" unicode="a" horiz-adv-x="999" 
d="M639 332v94h-190q-72 0 -111 -32t-39 -83q0 -100 162 -100q82 0 130 33t48 88zM434 -14q-178 0 -275.5 89t-97.5 226q0 141 96.5 248.5t303.5 107.5h178v64q0 66 -36 91.5t-128 25.5q-152 0 -221 -95l-156 193q145 133 377 133q201 0 306.5 -82t105.5 -270v-717h-248v90
h-21q-27 -35 -42 -52.5t-53 -34.5t-89 -17z" />
    <glyph glyph-name="b" unicode="b" horiz-adv-x="983" 
d="M664 373v309q0 63 -44.5 107.5t-109.5 44.5q-63 0 -106.5 -44.5t-43.5 -107.5v-311q0 -63 45.5 -107.5t106.5 -44.5q63 0 107.5 44t44.5 110zM113 0v1468h245v-503h21q25 37 41 54t54 33.5t89 16.5q154 0 251 -103.5t97 -299.5v-279q0 -166 -117.5 -283.5t-281.5 -117.5
q-84 0 -152 32v-18h-247z" />
    <glyph glyph-name="c" unicode="c" horiz-adv-x="937" 
d="M639 414l238 -86q-37 -147 -148 -244.5t-248 -97.5q-166 0 -282.5 117.5t-116.5 281.5v285q0 168 116.5 283.5t282.5 115.5q137 0 247 -95t146 -245l-237 -84q-4 80 -49 136.5t-107 56.5q-63 0 -107 -45t-44 -109v-295q0 -68 45 -119t106 -51q57 0 102.5 57.5t55.5 137.5
z" />
    <glyph glyph-name="d" unicode="d" horiz-adv-x="962" 
d="M330 684v-307q0 -66 45 -111t108.5 -45t107.5 45t44 111v311q0 61 -46 105.5t-108 44.5q-63 0 -107 -45.5t-44 -108.5zM881 1468v-1468h-246v90h-21q-27 -35 -42 -52.5t-53 -34.5t-89 -17q-152 0 -250 104.5t-98 300.5v279q0 166 116.5 282.5t282.5 116.5q80 0 152 -31
v430h248z" />
    <glyph glyph-name="e" unicode="e" horiz-adv-x="931" 
d="M623 360l231 -81q-51 -129 -156.5 -211t-228.5 -82q-164 0 -280.5 117.5t-116.5 281.5v285q0 166 115.5 282.5t281.5 116.5q160 0 280.5 -120t120.5 -279v-228h-553v-53q0 -68 45.5 -119t106.5 -51q45 0 88 40t66 101zM623 627v69q0 61 -45.5 101.5t-108.5 40.5
t-107.5 -40t-44.5 -102v-69h306z" />
    <glyph glyph-name="f" unicode="f" horiz-adv-x="636" 
d="M150 842h-89v213h89v110q0 125 89 214t214 89h143v-249h-143q-23 -4 -39.5 -24.5t-16.5 -45.5v-94h199v-213h-199v-842h-247v842z" />
    <glyph glyph-name="g" unicode="g" horiz-adv-x="942" 
d="M307 680v-307q0 -63 44 -108.5t107.5 -45.5t108.5 43t45 107v311q0 63 -44 108.5t-107.5 45.5t-108.5 -45.5t-45 -108.5zM612 965v90h248v-1035q0 -164 -117.5 -281.5t-281.5 -117.5q-94 0 -182.5 50t-153.5 136l192 152q68 -102 144 -102q61 0 104 50t47 120
q-90 -41 -153 -41q-164 0 -281 117.5t-117 283.5v279q0 197 97.5 300t249.5 103q51 0 89 -16.5t54 -34t41 -53.5h20z" />
    <glyph glyph-name="h" unicode="h" horiz-adv-x="995" 
d="M565 1069q154 0 251 -103.5t97 -299.5v-666h-247v682q0 63 -45.5 108.5t-108.5 45.5t-107.5 -45.5t-44.5 -108.5v-682h-247v1468h247v-503h21q25 37 41 54t54 33.5t89 16.5z" />
    <glyph glyph-name="i" unicode="i" horiz-adv-x="473" 
d="M113 1055v-1055h247v1055h-247zM377 1331q0 -57 -40 -98t-97.5 -41t-98.5 41t-41 98q0 61 40 99t100 38q57 0 97 -39t40 -98z" />
    <glyph glyph-name="j" unicode="j" horiz-adv-x="471" 
d="M360 -59v1114h-247v-1102q0 -23 -16.5 -42.5t-39.5 -27.5h-141v-248h143q125 0 213 89.5t88 216.5zM375 1331q0 -57 -40 -98t-97.5 -41t-98.5 41t-41 98q0 61 40 99t100 38q57 0 97 -39t40 -98z" />
    <glyph glyph-name="k" unicode="k" horiz-adv-x="948" 
d="M360 737l232 318h311l-344 -432l379 -623h-293l-239 426l-46 -53v-373h-247v1468h247v-731z" />
    <glyph glyph-name="l" unicode="l" horiz-adv-x="550" 
d="M113 301v1167h247v-1153q0 -27 16.5 -48t39.5 -21h94v-248h-96q-125 0 -213 89t-88 214z" />
    <glyph glyph-name="m" unicode="m" horiz-adv-x="1564" 
d="M563 1069q170 0 262 -119q98 119 289 119q135 0 241.5 -105.5t106.5 -297.5v-666h-248v682q0 63 -44 108.5t-107.5 45.5t-107.5 -44t-44 -110v-682h-247v682q0 63 -45.5 108.5t-109 45.5t-106.5 -44t-43 -110v-682h-247v1055h245v-90h21q25 37 41 54t54 33.5t89 16.5z
" />
    <glyph glyph-name="n" unicode="n" horiz-adv-x="1013" 
d="M358 1055v-90h21q25 37 41 54t54 33.5t89 16.5q154 0 251 -103.5t97 -299.5v-666h-247v682q0 63 -45.5 108.5t-109 45.5t-106.5 -44t-43 -110v-682h-247v1055h245z" />
    <glyph glyph-name="o" unicode="o" horiz-adv-x="942" 
d="M623 387v297q0 63 -44 107.5t-110 44.5q-63 0 -106.5 -44t-43.5 -108v-297q0 -66 44.5 -117t105.5 -51q63 0 108.5 51t45.5 117zM870 653v-258q0 -170 -117.5 -289.5t-283.5 -119.5q-164 0 -280.5 117.5t-116.5 281.5v283q0 168 116.5 284.5t280.5 116.5
q166 0 283.5 -121t117.5 -295z" />
    <glyph glyph-name="p" unicode="p" horiz-adv-x="993" 
d="M664 373v307q0 63 -44.5 108.5t-107.5 45.5t-107.5 -44.5t-44.5 -109.5v-311q0 -61 45.5 -105.5t106.5 -44.5q63 0 107.5 44t44.5 110zM360 1055v-90h19q25 37 41 54t54 33.5t89 16.5q152 0 250 -103.5t98 -299.5v-279q0 -166 -116.5 -283.5t-282.5 -117.5q-84 0 -152 32
v-383h-247v1420h247z" />
    <glyph glyph-name="q" unicode="q" horiz-adv-x="962" 
d="M328 682v-307q0 -63 45 -108.5t108.5 -45.5t107.5 45t44 109v311q0 63 -45 106.5t-108.5 43.5t-107.5 -44t-44 -110zM633 -365v455h-21q-27 -35 -42 -52.5t-53 -34.5t-89 -17q-152 0 -249 103.5t-97 299.5v279q0 168 116.5 284.5t280.5 116.5q76 0 154 -31v17h248v-1420
h-248z" />
    <glyph glyph-name="r" unicode="r" horiz-adv-x="755" 
d="M360 1055v-90h21q25 37 41 54t54 33.5t89 16.5q90 0 191 -51l-111 -244q-82 59 -133 60q-63 0 -107.5 -44.5t-44.5 -107.5v-682h-247v1055h247z" />
    <glyph glyph-name="s" unicode="s" horiz-adv-x="946" 
d="M61 141l158 162q104 -84 236 -84q96 0 139 24.5t43 84.5q-4 31 -20.5 50t-48 26.5t-54 10.5t-68 3h-57.5q-125 6 -210 87t-85 206q0 190 104.5 274t305.5 84q231 0 366 -133l-155 -193q-68 92 -211 93q-90 0 -126 -25t-38 -88q2 -12 6 -23.5t14.5 -18.5l18.5 -12
t24.5 -9.5t27.5 -6.5t33.5 -4t36 -3t40 -2t41.5 -1q145 -6 224 -94t79 -215q0 -190 -110.5 -269t-319.5 -79q-109 0 -218.5 47t-175.5 108z" />
    <glyph glyph-name="t" unicode="t" horiz-adv-x="624" 
d="M61 1055h101v413h248v-413h153v-213h-153v-525q0 -49 55 -69h96v-248h-98q-123 0 -210 86t-87 211v545h-105v213z" />
    <glyph glyph-name="u" unicode="u" horiz-adv-x="952" 
d="M623 0v90h-19q-27 -35 -42 -52.5t-53 -34.5t-89 -17q-154 0 -251 103.5t-97 299.5v666h247v-678q0 -66 44.5 -111t108 -45t107.5 45t44 111v678h247v-1055h-247z" />
    <glyph glyph-name="v" unicode="v" horiz-adv-x="958" 
d="M672 1055h266l-330 -1055h-254l-334 1055h269l192 -693z" />
    <glyph glyph-name="w" unicode="w" horiz-adv-x="1558" 
d="M977 0l-199 639l-200 -639h-248l-310 1055h261l174 -674l198 674h248l199 -676l176 676h262l-311 -1055h-250z" />
    <glyph glyph-name="x" unicode="x" horiz-adv-x="940" 
d="M311 537l-291 518h277l172 -318l174 318h277l-291 -518l289 -537h-275l-174 336l-172 -336h-274z" />
    <glyph glyph-name="y" unicode="y" horiz-adv-x="970" 
d="M950 1055l-389 -1129q-25 -63 -46 -104t-57 -89t-88.5 -73t-117.5 -25h-102v248h102q16 0 30.5 11.5t25.5 34t19.5 43t18.5 52t16 46.5l-342 985h265l200 -604l203 604h262z" />
    <glyph glyph-name="z" unicode="z" horiz-adv-x="897" 
d="M836 842l-465 -625h456v-217h-766v215l463 623h-430v217h742v-213z" />
    <glyph glyph-name="braceleft" unicode="{" horiz-adv-x="782" 
d="M721 111v-250q-199 0 -341 126t-142 302v278l-125 162l123 158v295q0 176 142 302t343 126v-252q-96 0 -165 -51.5t-69 -124.5v-332l-90 -121l90 -121v-319q0 -74 69 -126t165 -52z" />
    <glyph glyph-name="bar" unicode="|" horiz-adv-x="477" 
d="M113 -188v1845h252v-1845h-252z" />
    <glyph glyph-name="braceright" unicode="}" horiz-adv-x="782" 
d="M61 -139v250q96 0 165 52t69 126v319l90 121l-90 121v332q0 74 -68.5 125t-165.5 51v252q201 0 342.5 -126t141.5 -302v-295l125 -158l-125 -162v-278q0 -176 -142.5 -302t-341.5 -126z" />
    <glyph glyph-name="asciitilde" unicode="~" horiz-adv-x="1030" 
d="M346 573h-233q18 147 95 238.5t183 91.5q59 0 137 -45t101 -45q43 0 63 100h226q-25 -141 -93.5 -235t-181.5 -94q-57 0 -142 44t-110 44q-45 -1 -45 -99z" />
    <glyph glyph-name="exclamdown" unicode="&#xa1;" horiz-adv-x="501" 
d="M377 0v1118h-252v-1118h252zM113 1350q0 57 40 98t97 41t98 -41t41 -98q0 -61 -40 -99.5t-99 -38.5q-57 0 -97 39.5t-40 98.5z" />
    <glyph glyph-name="cent" unicode="&#xa2;" horiz-adv-x="1019" 
d="M686 709l250 -101q-12 -143 -96 -254.5t-205 -150.5v-121h-252v121q-133 41 -217 153.5t-84 255.5v244q0 143 84 255t217 153v122h252v-124q125 -37 207 -147.5t94 -262.5l-250 -92v96q0 72 -52 123t-126 51t-126 -51t-52 -123v-244q0 -74 52 -126t126 -52t126 52.5
t52 125.5v97z" />
    <glyph glyph-name="sterling" unicode="&#xa3;" horiz-adv-x="1140" 
d="M113 0v233h112v385h-112v232h112v211q0 176 126 303t302 127q178 0 302 -138.5t124 -334.5l-250 -88v131q0 74 -52 125t-123.5 51t-124 -51t-52.5 -125v-211h277v-232h-277v-385h498v-233h-862z" />
    <glyph glyph-name="yen" unicode="&#xa5;" 
d="M225 203v192h187v84h-187v191h187v24q-131 41 -215 154t-84 254v366h247v-366q0 -72 52.5 -124t126 -52t126 52t52.5 124v366h250v-366q0 -143 -85 -256t-216 -152v-24h186v-191h-186v-84h186v-192h-186v-203h-254v203h-187z" />
    <glyph glyph-name="brokenbar" unicode="&#xa6;" horiz-adv-x="497" 
d="M123 858v799h252v-799h-252zM123 -188v819h252v-819h-252z" />
    <glyph glyph-name="section" unicode="&#xa7;" horiz-adv-x="1052" 
d="M940 733q0 -164 -94 -254q61 -61 61 -174q0 -156 -107.5 -237.5t-301.5 -81.5q-231 0 -367 135l156 190q68 -92 211 -92q164 0 164 86q0 53 -136 96q-80 25 -127 41.5t-109.5 47t-95 62.5t-57 81t-24.5 110q0 156 98 254q-66 74 -66 174q0 156 107.5 238t302.5 82
q231 0 367 -135l-156 -191q-68 90 -211 90q-164 0 -164 -84q0 -53 135 -96q80 -25 127 -41t109.5 -47t95.5 -62.5t57.5 -81t24.5 -110.5zM346 760q0 -61 107.5 -100t173.5 -39q78 0 78 98q0 59 -113 106t-178 47q-25 0 -46.5 -31.5t-21.5 -80.5z" />
    <glyph glyph-name="dieresis" unicode="&#xa8;" horiz-adv-x="700" 
d="M315 1356q0 -57 -38.5 -98t-96 -41t-98.5 40.5t-41 98.5q0 61 40 99t99 38q57 0 96 -38t39 -99zM659 1356q0 -57 -39.5 -98t-97 -41t-97.5 40.5t-40 98.5q0 61 39 99t98 38q57 0 97 -39t40 -98z" />
    <glyph glyph-name="copyright" unicode="&#xa9;" horiz-adv-x="1214" 
d="M672 479h-131q-176 0 -302 124t-126 302v158q0 178 126 303t302 125h131q178 0 304 -125t126 -303v-158q0 -178 -126 -302t-304 -124zM532 696h148q82 0 140.5 58.5t58.5 142.5v174q0 84 -58.5 142.5t-140.5 58.5h-148q-82 0 -140 -58.5t-58 -142.5v-174q0 -84 58 -142.5
t140 -58.5zM676 905v-28q0 -29 -19.5 -48.5t-48 -19.5t-48 19.5t-19.5 48.5v204q0 29 20.5 48.5t46.5 19.5q29 0 48.5 -19.5t19.5 -48.5v-30l63 22q0 57 -38.5 98t-92 41t-91.5 -38.5t-38 -92.5v-204q0 -53 38 -92.5t91.5 -39.5t92 41t38.5 97z" />
    <glyph glyph-name="ordfeminine" unicode="&#xaa;" horiz-adv-x="659" 
d="M410 1098v47h-97q-74 0 -73 -58q0 -49 79 -49q41 0 66 16.5t25 43.5zM305 924q-88 0 -137 45t-49 114.5t48 124t152 54.5h91v30q0 33 -18.5 46.5t-65.5 13.5q-72 0 -109 -47l-80 98q72 66 189 65q102 0 154 -41t52 -137v-360h-122v45h-11q-39 -51 -94 -51z" />
    <glyph glyph-name="guillemotleft" unicode="&#xab;" horiz-adv-x="1597" 
d="M567 150l-454 374l454 373h361l-428 -375l424 -372h-357zM1102 150l-453 374l453 373h362l-428 -375l422 -372h-356z" />
    <glyph glyph-name="logicalnot" unicode="&#xac;" horiz-adv-x="1695" 
d="M541 1491q176 0 302 -126t126 -302q0 -68 50 -125t144 -90q63 -23 112.5 -45.5t111 -61.5t101.5 -83t67.5 -110.5t27.5 -144.5q0 -176 -126 -302t-302 -126t-302 126t-126 302q0 68 -50 127.5t-142 90.5q-422 141 -422 440q0 178 126 304t302 126zM717 1063
q0 72 -51.5 124t-125 52t-126 -51t-52.5 -127q0 -127 207 -197q410 -133 410 -463q0 -74 52 -125t124 -51q74 0 126 52.5t52 125.5q0 127 -207 197q-409 133 -409 463z" />
    <glyph glyph-name="registered" unicode="&#xae;" horiz-adv-x="1216" 
d="M674 479h-131q-176 0 -302 124t-126 302v158q0 178 126 303t302 125h131q178 0 304 -125t126 -303v-158q0 -178 -126 -302t-304 -124zM535 696h147q82 0 140.5 58.5t58.5 142.5v174q0 84 -58.5 142.5t-140.5 58.5h-147q-82 0 -140.5 -58.5t-58.5 -142.5v-174
q0 -84 58.5 -142.5t140.5 -58.5zM541 1018v135h67q29 0 49.5 -19.5t20.5 -48t-20.5 -48t-49.5 -19.5h-67zM608 1217h-129v-465h62v204h55l94 -204h82l-110 213q78 37 77 120q0 55 -38 93.5t-93 38.5z" />
    <glyph glyph-name="macron" unicode="&#xaf;" horiz-adv-x="913" 
d="M113 1212v252h688v-252h-688z" />
    <glyph glyph-name="degree" unicode="&#xb0;" horiz-adv-x="954" 
d="M113 1130.5q0 149.5 106.5 256t258 106.5t258 -106.5t106.5 -256t-106.5 -256t-258 -106.5t-258 106.5t-106.5 256zM346 1130.5q0 -55.5 38 -93.5t93 -38t93 38t38 93.5t-38 93.5t-93 38t-93 -38t-38 -93.5z" />
    <glyph glyph-name="plusminus" unicode="&#xb1;" horiz-adv-x="968" 
d="M113 0v248h729v-248h-729zM127 575v252h238v240h253v-240h238v-252h-238v-237h-253v237h-238z" />
    <glyph glyph-name="uni00B2" unicode="&#xb2;" horiz-adv-x="442" 
d="M53 997l217 295q8 8 9 21q0 27 -19.5 45t-48.5 18q-27 0 -45.5 -18.5t-18.5 -44.5v-49l-94 34q0 72 46 122t111.5 50t112 -46t46.5 -115q0 -37 -23 -70l-168 -227h191v-94h-316v79z" />
    <glyph glyph-name="uni00B3" unicode="&#xb3;" horiz-adv-x="442" 
d="M377 1313v-13q0 -61 -45 -106q45 -49 45 -113v-8q0 -66 -45 -110.5t-111 -44.5q-63 0 -109 50t-46 122l90 32v-49q0 -27 19.5 -45t46 -18t45 18.5t18.5 44.5v8q0 27 -24.5 45.5t-59.5 18.5v94q33 0 58.5 18.5t25.5 42.5v13q0 27 -18.5 46t-45 19t-46 -19.5t-19.5 -45.5
v-49l-90 36q0 70 46 120t109 50q66 0 111 -45.5t45 -111.5z" />
    <glyph glyph-name="acute" unicode="&#xb4;" horiz-adv-x="454" 
d="M41 1137l121 370l252 -116l-207 -328z" />
    <glyph glyph-name="uni00B5" unicode="&#xb5;" horiz-adv-x="878" 
d="M565 152h-252v700l-200 -45l325 526l328 -526l-201 45v-700z" />
    <glyph glyph-name="paragraph" unicode="&#xb6;" horiz-adv-x="1351" 
d="M539 -389v1005q-176 0 -301 125t-125 303q0 176 124.5 300t301.5 124h233v-1857h-233zM864 -389v1857h375v-254h-143v-1603h-232z" />
    <glyph glyph-name="periodcentered" unicode="&#xb7;" horiz-adv-x="667" 
d="M113 745.5q0 94.5 63.5 152.5t157.5 58t157.5 -58t63.5 -152.5t-63.5 -152.5t-157.5 -58t-157.5 58t-63.5 152.5z" />
    <glyph glyph-name="cedilla" unicode="&#xb8;" horiz-adv-x="706" 
d="M518 111l-59 -88q135 -41 135 -177q0 -106 -70.5 -169.5t-181.5 -63.5q-86 0 -229 57l75 174q88 -41 138 -41q70 0 69 35q0 31 -57 31q-39 0 -86 -35l-109 90l129 187h246z" />
    <glyph glyph-name="uni00B9" unicode="&#xb9;" horiz-adv-x="442" 
d="M141 1409l105 61h78v-552h-95v438l-88 -51v104z" />
    <glyph glyph-name="ordmasculine" unicode="&#xba;" horiz-adv-x="667" 
d="M393 1151v106q0 27 -15.5 44.5t-43.5 17.5q-59 0 -60 -62v-106q0 -74 60 -74q27 0 43 21.5t16 52.5zM555 1255v-118q0 -84 -68.5 -145.5t-152.5 -61.5t-152.5 61.5t-68.5 143.5v127q0 84 67.5 145t153.5 61q84 0 152.5 -63.5t68.5 -149.5z" />
    <glyph glyph-name="guillemotright" unicode="&#xbb;" horiz-adv-x="1595" 
d="M946 524l-452 -374h-361l424 374l-422 373h359zM1483 524l-455 -374h-360l426 374l-424 373h358z" />
    <glyph glyph-name="onequarter" unicode="&#xbc;" horiz-adv-x="1142" 
d="M365 942v-410h413v410h-413zM113 279v917h917v-917h-917z" />
    <glyph glyph-name="onehalf" unicode="&#xbd;" horiz-adv-x="1695" 
d="M979 1063q0 -330 -410 -463q-207 -70 -207 -197q0 -74 52.5 -126t126.5 -52q72 0 124 51.5t52 124.5q0 330 409 463q207 70 207 197q0 76 -52 127t-126 51t-125 -52t-51 -124zM1155 1491q176 0 302 -126t126 -304q0 -299 -422 -440q-92 -31 -142 -90.5t-50 -127.5
q0 -176 -126 -302t-302 -126t-302 126t-126 302q0 78 27.5 144.5t67.5 110.5t101.5 83t110.5 61.5t112 45.5q94 33 144.5 90t50.5 125q0 176 126 302t302 126z" />
    <glyph glyph-name="threequarters" unicode="&#xbe;" horiz-adv-x="1525" 
d="M473 737l289 -291l293 291l-291 289zM764 88l-651 649l649 649l651 -649z" />
    <glyph glyph-name="questiondown" unicode="&#xbf;" horiz-adv-x="974" 
d="M362 1118v-123q0 -41 -23.5 -88t-96.5 -145l-113 -156q-68 -92 -68 -188q0 -180 124 -307t302 -127q176 0 301 135t125 327l-249 99v-133q0 -74 -52.5 -125t-124.5 -51q-74 0 -126 51t-52 125q0 31 19 53l77 103.5l68 90.5q86 117 113.5 179.5t27.5 124.5v155h-252z
M350 1350q0 57 40 98t97.5 41t98.5 -41t41 -98q0 -61 -40 -99.5t-100 -38.5q-57 0 -97 39.5t-40 98.5z" />
    <glyph glyph-name="Agrave" unicode="&#xc0;" horiz-adv-x="1032" 
d="M424 573h188l-94 359zM416 1468h200l406 -1468h-252l-100 362h-303l-105 -362h-252zM494 1964l120 -371l-165 -73l-207 329z" />
    <glyph glyph-name="Aacute" unicode="&#xc1;" horiz-adv-x="1032" 
d="M612 573h-188l94 359zM616 1468h-200l-406 -1468h252l105 362h303l100 -362h252zM442 1593l121 371l252 -117l-207 -327z" />
    <glyph glyph-name="Acircumflex" unicode="&#xc2;" horiz-adv-x="1032" 
d="M424 573h188l-94 359zM416 1468h200l406 -1468h-252l-100 362h-303l-105 -362h-252zM446 1952h146l346 -420h-274l-146 178l-143 -178h-275z" />
    <glyph glyph-name="Atilde" unicode="&#xc3;" horiz-adv-x="1032" 
d="M612 573h-188l94 359zM616 1468h-200l-406 -1468h252l105 362h303l100 -362h252zM346 1544h-233q18 145 94 229.5t184 84.5q59 0 137 -45.5t101 -45.5q43 0 63 101h226q-25 -137 -92.5 -225.5t-182.5 -88.5q-57 0 -142 44t-110 44q-45 0 -45 -98z" />
    <glyph glyph-name="Adieresis" unicode="&#xc4;" horiz-adv-x="1032" 
d="M612 573h-188l94 359zM616 1468h-200l-406 -1468h252l105 362h303l100 -362h252zM483 1659q0 -57 -38.5 -98t-96 -41t-98.5 41t-41 98q0 61 40 99t99 38q57 0 96 -38t39 -99zM827 1659q0 -57 -39.5 -98t-97 -41t-97.5 41t-40 98q0 61 39 99t98 38q57 0 97 -39t40 -98z
" />
    <glyph glyph-name="Aring" unicode="&#xc5;" horiz-adv-x="1032" 
d="M612 573h-188l94 359zM616 1468h-200l-406 -1468h252l105 362h303l100 -362h252zM293 1741q0 94 63.5 152.5t157.5 58.5t157.5 -58.5t63.5 -152.5q0 -92 -63.5 -150.5t-157.5 -58.5t-157.5 58.5t-63.5 150.5zM436 1741q0 -33 22.5 -52.5t55.5 -19.5t55.5 19.5t22.5 52.5
q0 35 -22.5 55.5t-55.5 20.5t-55.5 -20.5t-22.5 -55.5z" />
    <glyph glyph-name="AE" unicode="&#xc6;" horiz-adv-x="1691" 
d="M614 612h160v328zM1024 1217v-359h465v-250h-465v-358h606v-250h-856v383h-287l-208 -383h-269l809 1468h811v-251h-606z" />
    <glyph glyph-name="Ccedilla" unicode="&#xc7;" horiz-adv-x="997" 
d="M686 403v136l250 -99q0 -145 -77 -263t-195 -169q98 -51 98 -162q0 -106 -70.5 -169.5t-181.5 -63.5q-86 0 -229 57l73 166q84 -39 140 -39q27 0 48 12.5t21 28.5q0 14 -16.5 24.5t-40.5 10.5q-35 0 -86 -39l-109 90l56 76q-127 45 -206 154.5t-79 248.5v658
q0 178 125 304t301 126q178 0 303 -138.5t125 -334.5l-250 -88v131q0 76 -52 127t-126 51t-126 -51t-52 -127v-658q0 -74 52 -126t126 -52t126 52t52 126z" />
    <glyph glyph-name="Egrave" unicode="&#xc8;" horiz-adv-x="1028" 
d="M360 1217v-359h467v-250h-467v-358h607v-250h-854v1468h854v-251h-607zM514 1966l121 -371l-166 -73l-207 329z" />
    <glyph glyph-name="Eacute" unicode="&#xc9;" horiz-adv-x="1028" 
d="M360 858v359h607v251h-854v-1468h854v250h-607v358h467v250h-467zM395 1591l121 371l252 -117l-207 -327z" />
    <glyph glyph-name="Ecircumflex" unicode="&#xca;" horiz-adv-x="1028" 
d="M360 1217v-359h467v-250h-467v-358h607v-250h-854v1468h854v-251h-607zM473 1952h145l347 -420h-275l-145 178l-144 -178h-274z" />
    <glyph glyph-name="Edieresis" unicode="&#xcb;" horiz-adv-x="1028" 
d="M360 858v359h607v251h-854v-1468h854v250h-607v358h467v250h-467zM506 1663q0 -57 -39 -98t-96.5 -41t-98.5 41t-41 98q0 61 40 99t100 38q57 0 96 -38t39 -99zM850 1663q0 -57 -40 -98t-97.5 -41t-97.5 41t-40 98q0 61 39 99t99 38q57 0 97 -39t40 -98z" />
    <glyph glyph-name="Igrave" unicode="&#xcc;" horiz-adv-x="444" 
d="M111 0v1468h251v-1468h-251zM219 1964l121 -371l-166 -73l-207 329z" />
    <glyph glyph-name="Iacute" unicode="&#xcd;" horiz-adv-x="444" 
d="M111 1468v-1468h251v1468h-251zM139 1595l121 371l252 -117l-207 -327z" />
    <glyph glyph-name="Icircumflex" unicode="&#xce;" horiz-adv-x="444" 
d="M111 0v1468h251v-1468h-251zM168 1952h145l346 -420h-274l-145 178l-144 -178h-274z" />
    <glyph glyph-name="Idieresis" unicode="&#xcf;" horiz-adv-x="444" 
d="M111 1468v-1468h251v1468h-251zM203 1663q0 -57 -39 -98t-96.5 -41t-98.5 41t-41 98q0 61 40 99t100 38q57 0 96 -38t39 -99zM547 1663q0 -57 -40 -98t-97.5 -41t-97.5 41t-40 98q0 61 39 99t99 38q57 0 97 -39t40 -98z" />
    <glyph glyph-name="Eth" unicode="&#xd0;" horiz-adv-x="1071" 
d="M352 473v-223h176q74 0 126.5 52t52.5 124v616q0 72 -52.5 123.5t-126.5 51.5h-176v-508h234v-236h-234zM-104 473v236h206v759h426q176 0 303 -124.5t127 -301.5v-616q0 -176 -126.5 -301t-303.5 -125h-426v473h-206z" />
    <glyph glyph-name="Ntilde" unicode="&#xd1;" 
d="M113 1468v-1468h252v817l370 -817h232v1468h-250v-847l-373 847h-231zM375 1542h-234q18 145 94 229t185 84q59 0 137 -45t100 -45q43 0 64 101h225q-25 -137 -92.5 -225.5t-181.5 -88.5q-57 0 -142.5 44t-109.5 44q-45 0 -45 -98z" />
    <glyph glyph-name="Ograve" unicode="&#xd2;" horiz-adv-x="1017" 
d="M330 1063v-662q0 -74 52 -125t126 -51t126 51.5t52 124.5v662q0 76 -52 127t-126 51t-126 -51t-52 -127zM82 401v662q0 178 125 303t301 125t302 -125t126 -303v-662q0 -176 -126 -301t-302 -125t-301 125t-125 301zM481 1966l121 -371l-166 -73l-207 329z" />
    <glyph glyph-name="Oacute" unicode="&#xd3;" horiz-adv-x="1017" 
d="M330 1063v-662q0 -74 52 -125t126 -51t126 51.5t52 124.5v662q0 76 -52 127t-126 51t-126 -51t-52 -127zM82 401v662q0 178 125 303t301 125t302 -125t126 -303v-662q0 -176 -126 -301t-302 -125t-301 125t-125 301zM412 1595l120 371l252 -117l-206 -327z" />
    <glyph glyph-name="Ocircumflex" unicode="&#xd4;" horiz-adv-x="1017" 
d="M330 1063v-662q0 -74 52 -125t126 -51t126 51.5t52 124.5v662q0 76 -52 127t-126 51t-126 -51t-52 -127zM82 401v662q0 178 125 303t301 125t302 -125t126 -303v-662q0 -176 -126 -301t-302 -125t-301 125t-125 301zM436 1952h146l346 -420h-275l-145 178l-143 -178h-275
z" />
    <glyph glyph-name="Otilde" unicode="&#xd5;" horiz-adv-x="1017" 
d="M330 1063v-662q0 -74 52 -125t126 -51t126 51.5t52 124.5v662q0 76 -52 127t-126 51t-126 -51t-52 -127zM82 401v662q0 178 125 303t301 125t302 -125t126 -303v-662q0 -176 -126 -301t-302 -125t-301 125t-125 301zM340 1544h-234q18 145 94 229.5t185 84.5
q59 0 137 -45.5t101 -45.5q43 0 63 101h225q-25 -137 -92 -225.5t-182 -88.5q-57 0 -142 44t-110 44q-45 0 -45 -98z" />
    <glyph glyph-name="Odieresis" unicode="&#xd6;" horiz-adv-x="1017" 
d="M330 1063v-662q0 -74 52 -125t126 -51t126 51.5t52 124.5v662q0 76 -52 127t-126 51t-126 -51t-52 -127zM82 401v662q0 178 125 303t301 125t302 -125t126 -303v-662q0 -176 -126 -301t-302 -125t-301 125t-125 301zM473 1659q0 -57 -39 -98t-96 -41t-98 41t-41 98
q0 61 40 99t99 38q57 0 96 -38t39 -99zM817 1659q0 -57 -40 -98t-97 -41t-97 41t-40 98q0 61 39 99t98 38q57 0 97 -39t40 -98z" />
    <glyph glyph-name="multiply" unicode="&#xd7;" horiz-adv-x="1144" 
d="M281 258l-179 178l291 293l-291 291l179 180l292 -293l291 291l178 -180l-290 -289l290 -291l-178 -180l-291 291z" />
    <glyph glyph-name="Oslash" unicode="&#xd8;" horiz-adv-x="1017" 
d="M330 479v-78q0 -74 52 -125t126 -51t126 51.5t52 124.5v283zM686 971v92q0 76 -52 127t-126 51t-126 -51t-52 -127v-297zM82 401v662q0 178 125 303t301 125t302 -125t126 -303v-662q0 -176 -126 -301t-302 -125t-301 125t-125 301z" />
    <glyph glyph-name="Ugrave" unicode="&#xd9;" 
d="M113 401v1067h247v-1067q0 -74 52.5 -125t126 -51t126 51.5t52.5 124.5v1067h250v-1067q0 -176 -126 -301t-302.5 -125t-301 125t-124.5 301zM512 1966l121 -371l-166 -73l-207 329z" />
    <glyph glyph-name="Uacute" unicode="&#xda;" 
d="M113 1468v-1067q0 -176 124.5 -301t301 -125t302.5 125t126 301v1067h-250v-1067q0 -74 -52.5 -125t-126 -51t-126 51.5t-52.5 124.5v1067h-247zM438 1595l121 371l252 -117l-207 -327z" />
    <glyph glyph-name="Ucircumflex" unicode="&#xdb;" 
d="M113 401v1067h247v-1067q0 -74 52.5 -125t126 -51t126 51.5t52.5 124.5v1067h250v-1067q0 -176 -126 -301t-302.5 -125t-301 125t-124.5 301zM467 1952h145l346 -420h-274l-145 178l-144 -178h-274z" />
    <glyph glyph-name="Udieresis" unicode="&#xdc;" 
d="M113 1468v-1067q0 -176 124.5 -301t301 -125t302.5 125t126 301v1067h-250v-1067q0 -74 -52.5 -125t-126 -51t-126 51.5t-52.5 124.5v1067h-247zM504 1661q0 -57 -39 -98t-96.5 -41t-98.5 41t-41 98q0 61 40 99t100 38q57 0 96 -38t39 -99zM848 1661q0 -57 -40 -98
t-97.5 -41t-97.5 41t-40 98q0 61 39 99t99 38q57 0 97 -39t40 -98z" />
    <glyph glyph-name="Yacute" unicode="&#xdd;" horiz-adv-x="1081" 
d="M668 657l403 811h-280l-250 -507l-250 507h-281l404 -811v-657h254v657zM444 1593l121 371l252 -117l-207 -327z" />
    <glyph glyph-name="Thorn" unicode="&#xde;" horiz-adv-x="991" 
d="M512 426q61 0 106.5 51t45.5 119v295q0 63 -44.5 108t-107.5 45q-53 0 -96 -35.5t-54 -86.5v-361q12 -55 55.5 -95t94.5 -40zM111 0v1468h251v-223q76 31 150 31q164 0 281.5 -117t117.5 -282v-285q0 -164 -117.5 -281.5t-281.5 -117.5q-70 0 -150 28v-221h-251z" />
    <glyph glyph-name="germandbls" unicode="&#xdf;" horiz-adv-x="1005" 
d="M653 1055v53q0 63 -45 107.5t-108.5 44.5t-107.5 -44.5t-44 -107.5v-207h115q70 0 130 46.5t60 107.5zM348 -365h-246v1459q0 166 116 281.5t282 115.5q168 0 284.5 -121t116.5 -299q0 -135 -102 -252q145 -111 145 -317v-101q0 -162 -137 -281.5t-305 -119.5h-39v231h39
q70 0 133 46.5t63 107.5v131q0 61 -63.5 107.5t-132.5 46.5h-154v-1035z" />
    <glyph glyph-name="agrave" unicode="&#xe0;" horiz-adv-x="999" 
d="M639 332v94h-190q-72 0 -111 -32t-39 -83q0 -100 162 -100q82 0 130 33t48 88zM434 -14q-178 0 -275.5 89t-97.5 226q0 141 96.5 248.5t303.5 107.5h178v64q0 66 -36 91.5t-128 25.5q-152 0 -221 -95l-156 193q145 133 377 133q201 0 306.5 -82t105.5 -270v-717h-248v90
h-21q-27 -35 -42 -52.5t-53 -34.5t-89 -17zM487 1565l121 -371l-166 -74l-206 330z" />
    <glyph glyph-name="aacute" unicode="&#xe1;" horiz-adv-x="999" 
d="M639 426v-94q0 -55 -48 -88t-130 -33q-162 0 -162 100q0 51 39 83t111 32h190zM434 -14q51 0 89 17t53.5 34.5t41.5 52.5h21v-90h248v717q0 188 -105.5 270t-306.5 82q-231 0 -377 -133l156 -193q70 94 221 95q92 0 128 -26t36 -91v-64h-178q-207 0 -303.5 -107.5
t-96.5 -248.5q0 -137 97.5 -226t275.5 -89zM406 1192l120 371l252 -117l-207 -328z" />
    <glyph glyph-name="acircumflex" unicode="&#xe2;" horiz-adv-x="1034" 
d="M639 332v94h-190q-72 0 -111 -32t-39 -83q0 -100 162 -100q82 0 130 33t48 88zM434 -14q-178 0 -275.5 89t-97.5 226q0 141 96.5 248.5t303.5 107.5h178v64q0 66 -36 91.5t-128 25.5q-152 0 -221 -95l-156 193q145 133 377 133q201 0 306.5 -82t105.5 -270v-717h-248v90
h-21q-27 -35 -42 -52.5t-53 -34.5t-89 -17zM430 1552h145l347 -419h-275l-145 178l-144 -178h-274z" />
    <glyph glyph-name="atilde" unicode="&#xe3;" horiz-adv-x="1017" 
d="M639 426v-94q0 -55 -48 -88t-130 -33q-162 0 -162 100q0 51 39 83t111 32h190zM434 -14q51 0 89 17t53.5 34.5t41.5 52.5h21v-90h248v717q0 188 -105.5 270t-306.5 82q-231 0 -377 -133l156 -193q70 94 221 95q92 0 128 -26t36 -91v-64h-178q-207 0 -303.5 -107.5
t-96.5 -248.5q0 -137 97.5 -226t275.5 -89zM334 1174h-234q18 145 94 229t185 84q59 0 137 -45t100 -45q43 0 64 100h225q-25 -137 -92.5 -225t-181.5 -88q-57 0 -142.5 44t-109.5 44q-45 0 -45 -98z" />
    <glyph glyph-name="adieresis" unicode="&#xe4;" horiz-adv-x="999" 
d="M639 426v-94q0 -55 -48 -88t-130 -33q-162 0 -162 100q0 51 39 83t111 32h190zM434 -14q51 0 89 17t53.5 34.5t41.5 52.5h21v-90h248v717q0 188 -105.5 270t-306.5 82q-231 0 -377 -133l156 -193q70 94 221 95q92 0 128 -26t36 -91v-64h-178q-207 0 -303.5 -107.5
t-96.5 -248.5q0 -137 97.5 -226t275.5 -89zM467 1331q0 -57 -39 -98t-96.5 -41t-98 41t-40.5 98q0 61 39.5 99t99.5 38q57 0 96 -38t39 -99zM811 1331q0 -57 -40 -98t-97.5 -41t-97 41t-39.5 98q0 61 38.5 99t98.5 38q57 0 97 -39t40 -98z" />
    <glyph glyph-name="aring" unicode="&#xe5;" horiz-adv-x="999" 
d="M639 426v-94q0 -55 -48 -88t-130 -33q-162 0 -162 100q0 51 39 83t111 32h190zM434 -14q51 0 89 17t53.5 34.5t41.5 52.5h21v-90h248v717q0 188 -105.5 270t-306.5 82q-231 0 -377 -133l156 -193q70 94 221 95q92 0 128 -26t36 -91v-64h-178q-207 0 -303.5 -107.5
t-96.5 -248.5q0 -137 97.5 -226t275.5 -89zM270 1333q0 94 63.5 152.5t158 58.5t158 -58.5t63.5 -152.5q0 -92 -63.5 -150.5t-158 -58.5t-158 58.5t-63.5 150.5zM414 1333q0 -33 22.5 -52t55 -19t55 19t22.5 52q0 35 -22.5 55.5t-55 20.5t-55 -20.5t-22.5 -55.5z" />
    <glyph glyph-name="ae" unicode="&#xe6;" horiz-adv-x="1501" 
d="M1192 627v69q0 61 -45 101.5t-108.5 40.5t-107.5 -40t-44 -102v-69h305zM639 332v110h-190q-70 0 -110 -38.5t-40 -92.5q0 -100 162 -100q82 0 130 34t48 87zM1440 670v-228h-553v-61q0 -63 46 -116.5t105 -53.5q49 0 90 43t64 106l231 -81q-51 -131 -155.5 -212
t-229.5 -81q-160 0 -278 114q-102 -115 -326 -114q-184 0 -278.5 77.5t-94.5 215.5q0 141 96.5 244.5t303.5 103.5h178v94q0 66 -36 91.5t-128 25.5q-152 0 -221 -95l-156 193q145 133 377 133q215 0 311 -88q100 88 252 88q160 0 281 -119.5t121 -279.5z" />
    <glyph glyph-name="ccedilla" unicode="&#xe7;" horiz-adv-x="937" 
d="M723 -154q0 -106 -70.5 -169.5t-181.5 -63.5q-86 0 -229 57l75 174q88 -41 138 -41q70 0 69 35q0 31 -57 31q-39 0 -86 -35l-109 90l64 92q-113 43 -183.5 144.5t-70.5 224.5v285q0 168 116.5 283.5t282.5 115.5q137 0 247 -95t146 -245l-237 -84q-4 80 -49 136.5
t-107 56.5q-63 0 -107 -45t-44 -109v-295q0 -68 45 -119t106 -51q57 0 102.5 57.5t55.5 137.5l238 -86q-29 -111 -98.5 -195t-160.5 -121q105 -51 105 -166z" />
    <glyph glyph-name="egrave" unicode="&#xe8;" horiz-adv-x="942" 
d="M633 360l231 -81q-51 -129 -156.5 -211t-228.5 -82q-164 0 -280.5 117.5t-116.5 281.5v285q0 166 116.5 282.5t280.5 116.5q160 0 281 -120t121 -279v-228h-553v-53q0 -68 45 -119t106 -51q45 0 88 40t66 101zM633 627v69q0 61 -45 101.5t-108.5 40.5t-107.5 -40
t-44 -102v-69h305zM455 1563l120 -371l-165 -74l-207 330z" />
    <glyph glyph-name="eacute" unicode="&#xe9;" horiz-adv-x="942" 
d="M633 360l231 -81q-51 -129 -156.5 -211t-228.5 -82q-164 0 -280.5 117.5t-116.5 281.5v285q0 166 116.5 282.5t280.5 116.5q160 0 281 -120t121 -279v-228h-553v-53q0 -68 45 -119t106 -51q45 0 88 40t66 101zM633 627v69q0 61 -45 101.5t-108.5 40.5t-107.5 -40
t-44 -102v-69h305zM385 1190l121 371l252 -117l-207 -328z" />
    <glyph glyph-name="ecircumflex" unicode="&#xea;" horiz-adv-x="980" 
d="M653 360l232 -81q-51 -129 -156.5 -211t-228.5 -82q-164 0 -281 117.5t-117 281.5v285q0 166 117 282.5t281 116.5q160 0 280.5 -120t120.5 -279v-228h-553v-53q0 -68 45 -119t107 -51q45 0 87.5 40t65.5 101zM653 627v69q0 61 -45 101.5t-108.5 40.5t-107.5 -40
t-44 -102v-69h305zM428 1550h145l347 -420h-275l-145 179l-144 -179h-274z" />
    <glyph glyph-name="edieresis" unicode="&#xeb;" horiz-adv-x="942" 
d="M633 360l231 -81q-51 -129 -156.5 -211t-228.5 -82q-164 0 -280.5 117.5t-116.5 281.5v285q0 166 116.5 282.5t280.5 116.5q160 0 281 -120t121 -279v-228h-553v-53q0 -68 45 -119t106 -51q45 0 88 40t66 101zM633 627v69q0 61 -45 101.5t-108.5 40.5t-107.5 -40
t-44 -102v-69h305zM444 1329q0 -57 -38.5 -98t-96 -41t-98.5 41t-41 98q0 61 40 99t99 38q57 0 96 -38t39 -99zM788 1329q0 -57 -39.5 -98t-97 -41t-97.5 41t-40 98q0 61 39 99t98 38q57 0 97 -39t40 -98z" />
    <glyph glyph-name="igrave" unicode="&#xec;" horiz-adv-x="475" 
d="M111 0v1055h247v-1055h-247zM219 1563l121 -371l-166 -74l-207 330z" />
    <glyph glyph-name="iacute" unicode="&#xed;" horiz-adv-x="475" 
d="M111 1055v-1055h247v1055h-247zM137 1190l121 371l252 -117l-207 -328z" />
    <glyph glyph-name="icircumflex" unicode="&#xee;" horiz-adv-x="475" 
d="M111 0v1055h247v-1055h-247zM164 1550h145l346 -420h-274l-145 179l-144 -179h-274z" />
    <glyph glyph-name="idieresis" unicode="&#xef;" horiz-adv-x="475" 
d="M111 1055v-1055h247v1055h-247zM199 1333q0 -57 -39 -98t-96.5 -41t-98.5 41t-41 98q0 61 40 99t99 38q57 0 96.5 -38t39.5 -99zM543 1333q0 -57 -40 -98t-97.5 -41t-97.5 41t-40 98q0 61 39 99t99 38q57 0 97 -39t40 -98z" />
    <glyph glyph-name="eth" unicode="&#xf0;" horiz-adv-x="937" 
d="M621 387v297q0 63 -44.5 107.5t-109.5 44.5q-63 0 -106.5 -44t-43.5 -108v-297q0 -66 44.5 -117t105.5 -51q63 0 108.5 51t45.5 117zM301 1090l-121 178l74 55q-104 70 -172 102l141 197q158 -86 236 -154l42.5 30l52.5 36t40 29l127 -179l-96 -67q244 -272 243 -664
v-258q0 -170 -117.5 -289.5t-283.5 -119.5q-164 0 -280.5 117.5t-116.5 281.5v283q0 168 116.5 284.5t280.5 116.5q29 0 43 -2q-29 57 -84 111q-18 -12 -63.5 -45t-61.5 -43z" />
    <glyph glyph-name="ntilde" unicode="&#xf1;" horiz-adv-x="1019" 
d="M360 965v90h-245v-1055h247v682q0 66 43.5 110t106.5 44q66 0 110 -45.5t44 -108.5v-682h247v666q0 197 -97 300t-251 103q-51 0 -89 -16.5t-54 -34t-41 -53.5h-21zM346 1176h-233q18 145 94 229t184 84q59 0 137 -45t101 -45q43 0 63 100h226q-25 -137 -92.5 -225
t-182.5 -88q-57 0 -142 44t-110 44q-45 0 -45 -98z" />
    <glyph glyph-name="ograve" unicode="&#xf2;" horiz-adv-x="942" 
d="M623 387v297q0 63 -44 107.5t-110 44.5q-63 0 -106.5 -44t-43.5 -108v-297q0 -66 44.5 -117t105.5 -51q63 0 108.5 51t45.5 117zM870 653v-258q0 -170 -117.5 -289.5t-283.5 -119.5q-164 0 -280.5 117.5t-116.5 281.5v283q0 168 116.5 284.5t280.5 116.5
q166 0 283.5 -121t117.5 -295zM444 1565l121 -371l-166 -74l-206 330z" />
    <glyph glyph-name="oacute" unicode="&#xf3;" horiz-adv-x="942" 
d="M623 684v-297q0 -66 -45.5 -117t-108.5 -51q-61 0 -105.5 51.5t-44.5 116.5v297q0 63 43.5 107.5t106.5 44.5q66 0 110 -44.5t44 -107.5zM870 395v258q0 174 -117.5 295t-283.5 121q-164 0 -280.5 -116.5t-116.5 -284.5v-283q0 -164 116.5 -281.5t280.5 -117.5
q166 0 283.5 119.5t117.5 289.5zM373 1192l121 371l251 -117l-206 -328z" />
    <glyph glyph-name="ocircumflex" unicode="&#xf4;" horiz-adv-x="980" 
d="M645 387v297q0 63 -44 107.5t-109 44.5q-63 0 -106.5 -44t-43.5 -108v-297q0 -66 44 -117t106 -51q63 0 108 51t45 117zM893 653v-258q0 -170 -118 -289.5t-283 -119.5q-164 0 -281 117.5t-117 281.5v283q0 168 117 284.5t281 116.5q166 0 283.5 -121t117.5 -295z
M418 1548h145l346 -420h-274l-146 179l-143 -179h-274z" />
    <glyph glyph-name="otilde" unicode="&#xf5;" horiz-adv-x="942" 
d="M623 684v-297q0 -66 -45.5 -117t-108.5 -51q-61 0 -105.5 51.5t-44.5 116.5v297q0 63 43.5 107.5t106.5 44.5q66 0 110 -44.5t44 -107.5zM870 395v258q0 174 -117.5 295t-283.5 121q-164 0 -280.5 -116.5t-116.5 -284.5v-283q0 -164 116.5 -281.5t280.5 -117.5
q166 0 283.5 119.5t117.5 289.5zM340 1176h-234q18 145 94 229t185 84q59 0 137 -45t101 -45q43 0 63 100h225q-25 -137 -92 -225t-182 -88q-57 0 -142 44t-110 44q-45 0 -45 -98z" />
    <glyph glyph-name="odieresis" unicode="&#xf6;" horiz-adv-x="942" 
d="M623 684v-297q0 -66 -45.5 -117t-108.5 -51q-61 0 -105.5 51.5t-44.5 116.5v297q0 63 43.5 107.5t106.5 44.5q66 0 110 -44.5t44 -107.5zM870 395v258q0 174 -117.5 295t-283.5 121q-164 0 -280.5 -116.5t-116.5 -284.5v-283q0 -164 116.5 -281.5t280.5 -117.5
q166 0 283.5 119.5t117.5 289.5zM432 1331q0 -57 -39 -98t-96 -41t-98 41t-41 98q0 61 40 99t99 38q57 0 96 -38t39 -99zM776 1331q0 -57 -40 -98t-97 -41t-97 41t-40 98q0 61 39 99t98 38q57 0 97 -39t40 -98z" />
    <glyph glyph-name="divide" unicode="&#xf7;" horiz-adv-x="1085" 
d="M113 612v232h860v-232h-860zM680 397q0 -57 -40 -98t-97 -41q-59 0 -99.5 41t-40.5 98q0 59 40 98.5t100 39.5q57 0 97 -39.5t40 -98.5zM680 1059q0 -57 -40 -98t-97.5 -41t-98.5 40.5t-41 98.5q0 61 40 99t100 38q57 0 97 -39t40 -98z" />
    <glyph glyph-name="oslash" unicode="&#xf8;" horiz-adv-x="942" 
d="M469 219q63 0 108.5 51.5t45.5 116.5v84l-285 -164q51 -88 131 -88zM469 836q-63 0 -106.5 -44t-43.5 -108v-100l289 166q-39 86 -139 86zM870 653v-258q0 -170 -117.5 -289.5t-283.5 -119.5q-164 0 -280.5 117.5t-116.5 281.5v283q0 168 116.5 284.5t280.5 116.5
q166 0 283.5 -121t117.5 -295z" />
    <glyph glyph-name="ugrave" unicode="&#xf9;" horiz-adv-x="952" 
d="M623 0v90h-19q-27 -35 -42 -52.5t-53 -34.5t-89 -17q-154 0 -251 103.5t-97 299.5v666h247v-678q0 -66 44.5 -111t108 -45t107.5 45t44 111v678h247v-1055h-247zM446 1565l121 -371l-166 -74l-206 330z" />
    <glyph glyph-name="uacute" unicode="&#xfa;" horiz-adv-x="952" 
d="M623 90v-90h247v1055h-247v-678q0 -66 -44 -111t-107.5 -45t-108 45t-44.5 111v678h-247v-666q0 -197 97 -300t251 -103q51 0 89 17t53.5 34.5t41.5 52.5h19zM377 1192l121 371l252 -117l-207 -328z" />
    <glyph glyph-name="ucircumflex" unicode="&#xfb;" horiz-adv-x="952" 
d="M623 0v90h-19q-27 -35 -42 -52.5t-53 -34.5t-89 -17q-154 0 -251 103.5t-97 299.5v666h247v-678q0 -66 44.5 -111t108 -45t107.5 45t44 111v678h247v-1055h-247zM397 1550h146l346 -420h-275l-145 179l-143 -179h-275z" />
    <glyph glyph-name="udieresis" unicode="&#xfc;" horiz-adv-x="952" 
d="M623 90v-90h247v1055h-247v-678q0 -66 -44 -111t-107.5 -45t-108 45t-44.5 111v678h-247v-666q0 -197 97 -300t251 -103q51 0 89 17t53.5 34.5t41.5 52.5h19zM436 1333q0 -57 -39 -98t-96 -41t-98 41t-41 98q0 61 40 99t99 38q57 0 96 -38t39 -99zM780 1333
q0 -57 -40 -98t-97 -41t-97 41t-40 98q0 61 39 99t98 38q57 0 97 -39t40 -98z" />
    <glyph glyph-name="yacute" unicode="&#xfd;" horiz-adv-x="970" 
d="M561 -74l389 1129h-262l-203 -604l-200 604h-265l342 -985q-6 -14 -16 -46t-18.5 -52.5t-19.5 -43t-25.5 -34t-30.5 -11.5h-102v-248h102q66 0 118 25t88 73t57 89t46 104zM389 1159l121 371l252 -117l-207 -328z" />
    <glyph glyph-name="thorn" unicode="&#xfe;" horiz-adv-x="989" 
d="M662 373v307q0 63 -44.5 108.5t-108 45.5t-107.5 -44.5t-44 -109.5v-311q0 -61 45.5 -105.5t106.5 -44.5q63 0 107.5 44t44.5 110zM111 -365v1833h247v-481q61 82 203 82q152 0 250 -103.5t98 -299.5v-279q0 -166 -116.5 -283.5t-282.5 -117.5q-84 0 -152 32v-383h-247z
" />
    <glyph glyph-name="ydieresis" unicode="&#xff;" horiz-adv-x="970" 
d="M561 -74l389 1129h-262l-203 -604l-200 604h-265l342 -985q-6 -14 -16 -46t-18.5 -52.5t-19.5 -43t-25.5 -34t-30.5 -11.5h-102v-248h102q66 0 118 25t88 73t57 89t46 104zM451 1331q0 -57 -39 -98t-96.5 -41t-98.5 41t-41 98q0 61 40 99t99 38q57 0 96.5 -38t39.5 -99z
M795 1331q0 -57 -40 -98t-97.5 -41t-97.5 41t-40 98q0 61 39 99t98 38q57 0 97.5 -39t40.5 -98z" />
    <glyph glyph-name="dotlessi" unicode="&#x131;" horiz-adv-x="473" 
d="M113 0v1055h247v-1055h-247z" />
    <glyph glyph-name="Lslash" unicode="&#x141;" horiz-adv-x="966" 
d="M496 647v-393h606v-254h-856v498l-133 -78v285l133 75v688h250v-536q82 47 131 78v-283z" />
    <glyph glyph-name="lslash" unicode="&#x142;" horiz-adv-x="550" 
d="M244 301v197q-82 -47 -131 -78v285l131 75v688h248v-538l135 80v-285l-135 -80v-330q0 -23 16 -42t41 -27h92v-248h-94q-125 0 -214 89t-89 214z" />
    <glyph glyph-name="OE" unicode="&#x152;" horiz-adv-x="1632" 
d="M346 1063v-662q0 -74 52.5 -125t125.5 -51q72 0 123 51.5t51 124.5v662q0 76 -51 127t-123 51q-74 0 -126 -51t-52 -127zM952 1217v-359h463v-250h-463v-358h604v-250h-856v14q-78 -39 -176 -39q-178 0 -303 125t-125 301v662q0 178 125 303t303 125q88 0 176 -37v14h856
v-251h-604z" />
    <glyph glyph-name="oe" unicode="&#x153;" horiz-adv-x="1482" 
d="M1174 627v69q0 61 -45.5 101.5t-109 40.5t-106.5 -40t-43 -102v-69h304zM623 385v301q0 63 -45.5 106.5t-108.5 43.5t-106.5 -44t-43.5 -108v-297q0 -66 44.5 -117t105.5 -51t107.5 50t46.5 116zM1421 670v-228h-551v-61q0 -63 44 -112.5t106 -49.5q47 0 89 40t65 101
l231 -81q-51 -131 -155.5 -212t-229.5 -81q-162 0 -277 114q-115 -115 -274 -114q-166 0 -281.5 117.5t-115.5 281.5v283q0 168 115.5 284.5t281.5 116.5q154 0 274 -111q111 111 277 111q160 0 280.5 -119.5t120.5 -279.5z" />
    <glyph glyph-name="Scaron" unicode="&#x160;" horiz-adv-x="1030" 
d="M537 864q193 -61 302 -169.5t109 -293.5q0 -176 -126 -301t-302 -125q-178 0 -302 137.5t-124 333.5l248 91v-136q0 -74 52 -125t126 -51q72 0 123 51.5t51 124.5q0 70 -50 128.5t-142 91.5q-80 27 -142.5 57.5t-131 81.5t-107.5 128t-39 173q0 178 125 304t301 126
q178 0 303 -137t125 -336l-250 -88v131q0 76 -52 127t-126 51q-72 0 -123 -51t-51 -127q0 -127 203 -197zM588 1532h-146l-346 420h275l145 -180l141 180h277z" />
    <glyph glyph-name="scaron" unicode="&#x161;" horiz-adv-x="946" 
d="M219 303l-158 -162q66 -61 175.5 -108t218.5 -47q209 0 319.5 78.5t110.5 269.5q0 127 -79 215t-224 94q-14 0 -41 1t-40.5 2t-36 3t-33.5 4t-27.5 6.5t-24.5 9.5l-18.5 12t-14.5 18.5t-6 23.5q2 63 38 88t126 25q143 0 211 -93l155 193q-135 133 -366 133
q-201 0 -305.5 -84t-104.5 -274q0 -125 85 -206t210 -87h57.5t68 -3t54 -10.5t48 -27t20.5 -49.5q0 -59 -43 -84t-139 -25q-132 0 -236 84zM555 1098h-145l-347 420h275l145 -181l142 181h276z" />
    <glyph glyph-name="Ydieresis" unicode="&#x178;" horiz-adv-x="1081" 
d="M668 657l403 811h-280l-250 -507l-250 507h-281l404 -811v-657h254v657zM506 1661q0 -57 -39 -98t-96.5 -41t-98.5 41t-41 98q0 61 40 99t100 38q57 0 96 -38t39 -99zM850 1661q0 -57 -40 -98t-97.5 -41t-97.5 41t-40 98q0 61 39 99t99 38q57 0 97 -39t40 -98z" />
    <glyph glyph-name="Zcaron" unicode="&#x17d;" horiz-adv-x="935" 
d="M895 1468h-836v-243h529l-547 -1016v-209h854v244h-545l545 1013v211zM563 1532h-145l-346 420h274l146 -180l141 180h276z" />
    <glyph glyph-name="zcaron" unicode="&#x17e;" horiz-adv-x="950" 
d="M385 217l465 625v213h-741v-217h430l-463 -623v-215h766v217h-457zM553 1098h-145l-347 420h275l145 -181l142 181h276z" />
    <glyph glyph-name="florin" unicode="&#x192;" horiz-adv-x="759" 
d="M201 868h-88v215h88v82q0 125 89 214t214 89h143v-249h-143q-23 -4 -39 -24.5t-16 -45.5v-66h198v-215h-198v-1233h-248v1233z" />
    <glyph glyph-name="circumflex" unicode="&#x2c6;" horiz-adv-x="1062" 
d="M459 1462h145l346 -420h-274l-146 179l-143 -179h-274z" />
    <glyph glyph-name="caron" unicode="&#x2c7;" horiz-adv-x="1062" 
d="M604 1044h-145l-346 420h274l145 -180l142 180h276z" />
    <glyph glyph-name="breve" unicode="&#x2d8;" horiz-adv-x="950" 
d="M610 1493h228q0 -176 -101.5 -267t-261.5 -91t-261 91t-101 267h225q0 -135 137 -135q135 0 135 135z" />
    <glyph glyph-name="dotaccent" unicode="&#x2d9;" horiz-adv-x="501" 
d="M389 1331q0 -57 -40 -98t-97 -41t-98 41t-41 98q0 61 40 99t99 38q57 0 97 -39t40 -98z" />
    <glyph glyph-name="ring" unicode="&#x2da;" horiz-adv-x="667" 
d="M113 1255q0 94 63.5 152.5t157.5 58.5t157.5 -58t63.5 -153q0 -92 -63.5 -150t-157.5 -58t-157.5 58t-63.5 150zM256 1255q0 -33 22.5 -52t55.5 -19t55.5 19.5t22.5 51.5q0 35 -22.5 55.5t-55.5 20.5t-55.5 -20.5t-22.5 -55.5z" />
    <glyph glyph-name="ogonek" unicode="&#x2db;" horiz-adv-x="712" 
d="M565 -111v-221q-51 -33 -94 -44t-119 -11q-102 0 -170.5 63.5t-68.5 167.5q0 59 10 97.5t43 69t64.5 49t99.5 51.5h270l-102.5 -86t-75.5 -69t-58.5 -65.5t-17.5 -46.5q0 -31 57 -30q56 -1 162 75z" />
    <glyph glyph-name="tilde" unicode="&#x2dc;" horiz-adv-x="1030" 
d="M346 1176h-233q18 145 94 229t184 84q59 0 137 -45t101 -45q43 0 63 100h226q-25 -137 -92.5 -225t-182.5 -88q-57 0 -142 44t-110 44q-45 0 -45 -98z" />
    <glyph glyph-name="hungarumlaut" unicode="&#x2dd;" horiz-adv-x="983" 
d="M113 1075l84 279l53 108h278l-73 -151l-150 -236h-192zM459 1075l82 279l51 108h278l-73 -151l-148 -236h-190z" />
    <glyph glyph-name="pi" unicode="&#x3c0;" horiz-adv-x="1214" 
d="M672 479h-131q-176 0 -302 124t-126 302v158q0 178 126 303t302 125h131q178 0 304 -125t126 -303v-158q0 -178 -126 -302t-304 -124zM532 696h148q82 0 140.5 58.5t58.5 142.5v174q0 84 -58.5 142.5t-140.5 58.5h-148q-82 0 -140 -58.5t-58 -142.5v-174q0 -84 58 -142.5
t140 -58.5zM565 1149v-135h68q29 0 49 19.5t20 48t-20 48t-49 19.5h-68zM633 950h-68v-202h-61v464h129q55 0 93 -37.5t38 -93t-38 -93.5t-93 -38z" />
    <glyph glyph-name="endash" unicode="&#x2013;" horiz-adv-x="1220" 
d="M113 473v236h995v-236h-995z" />
    <glyph glyph-name="emdash" unicode="&#x2014;" horiz-adv-x="1515" 
d="M113 473v236h1290v-236h-1290z" />
    <glyph glyph-name="quoteleft" unicode="&#x2018;" horiz-adv-x="358" 
d="M272 1610l-14 -144q59 -45 59 -110q0 -61 -39.5 -99t-99.5 -38q-57 0 -97 38.5t-40 98.5q0 20 12 76l41 178h178z" />
    <glyph glyph-name="quoteright" unicode="&#x2019;" horiz-adv-x="358" 
d="M86 1221l14 143q-59 45 -59 111q0 61 40 99t99 38q57 0 97 -39t40 -98q0 -20 -12 -76l-41 -178h-178z" />
    <glyph glyph-name="quotesinglbase" unicode="&#x201a;" horiz-adv-x="358" 
d="M86 -129l14 143q-59 45 -59 111q0 61 40 99t99 38q57 0 97 -39t40 -98q0 -20 -12 -76l-41 -178h-178z" />
    <glyph glyph-name="quotedblleft" unicode="&#x201c;" horiz-adv-x="700" 
d="M272 1610l-14 -144q59 -45 59 -110q0 -61 -39.5 -99t-99.5 -38q-57 0 -97 38.5t-40 98.5q0 20 12 76l41 178h178zM614 1610l-14 -144q59 -45 59 -110q0 -61 -39.5 -99t-99.5 -38q-57 0 -97 38.5t-40 98.5q0 20 12 76l41 178h178z" />
    <glyph glyph-name="quotedblright" unicode="&#x201d;" horiz-adv-x="700" 
d="M428 1221l14 143q-59 45 -59 111q0 61 40 99t99 38q57 0 97 -39t40 -98q0 -20 -12 -76l-41 -178h-178zM86 1221l14 143q-59 45 -59 111q0 61 40 99t99 38q57 0 97 -39t40 -98q0 -20 -12 -76l-41 -178h-178z" />
    <glyph glyph-name="quotedblbase" unicode="&#x201e;" horiz-adv-x="700" 
d="M428 -129l14 143q-59 45 -59 111q0 61 40 99t99 38q57 0 97 -39t40 -98q0 -20 -12 -76l-41 -178h-178zM86 -129l14 143q-59 45 -59 111q0 61 40 99t99 38q57 0 97 -39t40 -98q0 -20 -12 -76l-41 -178h-178z" />
    <glyph glyph-name="dagger" unicode="&#x2020;" horiz-adv-x="954" 
d="M604 629v-856h-254v856h-237v252h237v397h254v-397h238v-252h-238z" />
    <glyph glyph-name="daggerdbl" unicode="&#x2021;" horiz-adv-x="950" 
d="M113 170v250h237v209h-237v252h237v397h254v-397h238v-252h-238v-209h238v-250h-238v-397h-254v397h-237z" />
    <glyph glyph-name="bullet" unicode="&#x2022;" horiz-adv-x="745" 
d="M113 745.5q0 110.5 74.5 178t185 67.5t185.5 -67.5t75 -178t-75 -179t-185.5 -68.5t-185 68.5t-74.5 179z" />
    <glyph glyph-name="ellipsis" unicode="&#x2026;" horiz-adv-x="1284" 
d="M387 125q0 -57 -39 -98t-96 -41t-98 41t-41 98q0 61 40 99t99 38q57 0 96 -38t39 -99zM1171 125q0 -57 -39.5 -98t-97 -41t-97.5 41t-40 98q0 61 39 99t98 38q57 0 97 -39t40 -98zM780 125q0 -57 -40 -98t-97 -41t-98 41t-41 98q0 61 40 99t99 38q57 0 97 -39t40 -98z
" />
    <glyph glyph-name="perthousand" unicode="&#x2030;" horiz-adv-x="1998" 
d="M272 0l635 1468h246l-633 -1468h-248zM1184 422v106q0 27 -15.5 44.5t-44.5 17.5q-59 0 -59 -62v-106q0 -74 59 -74q27 0 43.5 21.5t16.5 52.5zM1346 526v-118q0 -84 -69 -145.5t-153 -61.5t-152.5 61.5t-68.5 143.5v126q0 84 67.5 145.5t153.5 61.5q84 0 153 -63.5
t69 -149.5zM1724 422v106q0 27 -15 44.5t-44 17.5q-59 0 -59 -62v-106q0 -74 59 -74q27 0 43 21.5t16 52.5zM1886 526v-118q0 -84 -68.5 -145.5t-152.5 -61.5t-152.5 61.5t-68.5 143.5v126q0 84 67.5 145.5t153.5 61.5q84 0 152.5 -63.5t68.5 -149.5zM393 963v106
q0 27 -15.5 44t-43.5 17q-59 0 -60 -61v-106q0 -74 60 -74q27 0 43 21.5t16 52.5zM555 1067v-119q0 -84 -68.5 -145.5t-152.5 -61.5t-152.5 61.5t-68.5 143.5v127q0 84 67.5 145.5t153.5 61.5q84 0 152.5 -63.5t68.5 -149.5z" />
    <glyph glyph-name="guilsinglleft" unicode="&#x2039;" horiz-adv-x="1058" 
d="M567 150l-454 374l454 373h359l-426 -375l422 -372h-355z" />
    <glyph glyph-name="guilsinglright" unicode="&#x203a;" horiz-adv-x="1058" 
d="M946 524l-454 -374h-357l424 372l-426 375h359z" />
    <glyph glyph-name="fraction" unicode="&#x2044;" horiz-adv-x="1220" 
d="M113 -102l725 1675h270l-723 -1675h-272z" />
    <glyph glyph-name="Euro" unicode="&#x20ac;" horiz-adv-x="1148" 
d="M113 483v203h71v84h-71v203h71v88q0 178 124 304t300 126q178 0 303 -137t125 -336l-250 -88v131q0 76 -51 127t-127 51q-72 0 -123 -51t-51 -127v-88h289v-203h-289v-84h289v-203h-289v-80q0 -74 51.5 -126t122.5 -52q76 0 127 52.5t51 125.5v136l250 -99
q0 -193 -125 -328t-303 -135q-174 0 -299 125t-125 301v80h-71z" />
    <glyph glyph-name="trademark" unicode="&#x2122;" horiz-adv-x="1167" 
d="M113 1468h395v-182h-102v-420h-181v420h-112v182zM600 866v602h156l69 -139l74 139h156v-602h-183v207l-41 -84l-49 88v-211h-182z" />
    <glyph glyph-name="uni2126" unicode="&#x2126;" horiz-adv-x="1593" 
d="M1294 612l-284 570q-14 33 -58 32q-37 0 -57 -32l-270 -535h381l-58 117h-123l127 252l219 -430v2q6 -6 7 -17q0 -33 -37 -32h-668q-33 0 -33 26q0 8 6 21l316 622h-141l-287 -565q-27 -63 -27 -100q0 -127 166 -127h668q70 0 121 33.5t51 91.5q-1 36 -19 71zM797 117
q-305 0 -487.5 171t-182.5 470q0 309 176 475t494 166q319 0 494 -166t175 -475q0 -313 -171.5 -477t-497.5 -164z" />
    <glyph glyph-name="partialdiff" unicode="&#x2202;" horiz-adv-x="878" 
d="M313 1300h252v-698l201 45l-328 -526l-325 526l200 -45v698z" />
    <glyph glyph-name="uni2206" unicode="&#x2206;" horiz-adv-x="1521" 
d="M102 180l660 1247l657 -1247h-1317zM762 897l-260 -489h516z" />
    <glyph glyph-name="product" unicode="&#x220f;" horiz-adv-x="1404" 
d="M113 602v252h698l-45 201l526 -328l-526 -326l45 201h-698z" />
    <glyph glyph-name="summation" unicode="&#x2211;" horiz-adv-x="1404" 
d="M1292 854v-252h-698l45 -201l-526 326l526 328l-45 -201h698z" />
    <glyph glyph-name="minus" unicode="&#x2212;" horiz-adv-x="1105" 
d="M123 473v236h860v-236h-860z" />
    <glyph glyph-name="radical" unicode="&#x221a;" horiz-adv-x="1255" 
d="M451 385l421 1081h271l-572 -1466h-243l-215 657h268z" />
    <glyph glyph-name="infinity" unicode="&#x221e;" horiz-adv-x="1421" 
d="M453 600h20q53 0 90 38t37 91t-38 91t-89 38h-20q-51 0 -90 -38t-39 -91t38 -91t91 -38zM938 600h29q53 0 91 38t38 91t-38 91t-91 38h-29q-51 0 -89 -38t-38 -91t37 -91t90 -38zM967 389h-29q-139 0 -231 94q-100 -94 -234 -94h-20q-139 0 -239.5 99.5t-100.5 240.5
t100 240.5t240 99.5h20q133 0 234 -94q100 94 231 94h29q141 0 241.5 -99.5t100.5 -240.5t-100.5 -240.5t-241.5 -99.5z" />
    <glyph glyph-name="integral" unicode="&#x222b;" horiz-adv-x="1024" 
d="M360 684v-307q0 -66 45.5 -111t109 -45t107.5 45t44 111v311q0 61 -46.5 105.5t-107.5 44.5q-63 0 -107.5 -45.5t-44.5 -108.5zM666 0v90h-21q-27 -35 -42 -52.5t-53 -34.5t-89 -17q-152 0 -250 104.5t-98 300.5v279q0 166 116.5 282.5t282.5 116.5q82 0 152 -31v17h247
v-1055h-245z" />
    <glyph glyph-name="approxequal" unicode="&#x2248;" horiz-adv-x="1054" 
d="M295 635l-182 123q104 166 247 166q45 0 178.5 -44t178.5 -44q39 0 45 49l180 -127q-109 -154 -233 -154q-41 0 -182.5 45t-186.5 45q-2 0 -11.5 -5t-20.5 -19.5t-13 -34.5zM295 291l-182 123q104 166 247 166q45 0 178.5 -44t178.5 -44q39 0 45 49l180 -127
q-109 -154 -233 -154q-41 0 -182.5 45t-186.5 45q-2 0 -11.5 -5t-20.5 -19.5t-13 -34.5z" />
    <glyph glyph-name="notequal" unicode="&#x2260;" horiz-adv-x="987" 
d="M113 471v219h227l31 76h-258v221h354l70 156h268l-68 -156h137v-221h-231l-31 -76h262v-219h-354l-65 -145h-273l66 145h-135z" />
    <glyph glyph-name="lessequal" unicode="&#x2264;" horiz-adv-x="1099" 
d="M113 0v248h860v-248h-860zM127 784v230l860 477v-291l-545 -301l545 -301v-291z" />
    <glyph glyph-name="greaterequal" unicode="&#x2265;" horiz-adv-x="1099" 
d="M113 248v-248h860v248h-860zM987 1014v-230l-860 -477v291l545 301l-545 301v291z" />
    <glyph glyph-name="lozenge" unicode="&#x25ca;" horiz-adv-x="1591" 
d="M707 813l-52 -188h222l55 188h-225zM113 375v250h276l55 188h-331v250h397l106 377h265l-105 -377h221l107 377h264l-104 -377h215v-250h-283l-55 -188h338v-250h-404q-16 -68 -53 -200l-49 -175h-266l104 375h-223l-103 -375h-266l105 375h-211z" />
  </font>
</defs>
</svg>
